<mxfile host="app.diagrams.net" modified="2021-02-24T18:43:17.126Z" agent="5.0 (Windows NT 10.0; WOW64) AppleWebKit/537.36 (KHTML, like Gecko) Chrome/79.0.3945.117 Safari/537.36" etag="iGjiDf0KBuBYIQstzbix" version="14.4.3" type="github">
  <diagram id="bIy43ELB404GCUYp_4l-" name="Page-1">
    <mxGraphModel dx="1038" dy="580" grid="1" gridSize="10" guides="1" tooltips="1" connect="1" arrows="1" fold="1" page="1" pageScale="1" pageWidth="850" pageHeight="1100" math="0" shadow="0">
      <root>
        <mxCell id="0" />
        <mxCell id="1" parent="0" />
        <mxCell id="x30YPCIN9MbRx7GIg8Qw-1" value="" style="endArrow=none;html=1;exitX=0.1;exitY=1.1;exitDx=0;exitDy=0;exitPerimeter=0;" parent="1" edge="1">
          <mxGeometry width="50" height="50" relative="1" as="geometry">
            <mxPoint x="219" y="532" as="sourcePoint" />
            <mxPoint x="220" y="60" as="targetPoint" />
          </mxGeometry>
        </mxCell>
        <mxCell id="x30YPCIN9MbRx7GIg8Qw-18" value="" style="endArrow=none;html=1;exitX=0.219;exitY=1.15;exitDx=0;exitDy=0;exitPerimeter=0;" parent="1" edge="1">
          <mxGeometry width="50" height="50" relative="1" as="geometry">
            <mxPoint x="289.21000000000004" y="533" as="sourcePoint" />
            <mxPoint x="290" y="60" as="targetPoint" />
          </mxGeometry>
        </mxCell>
        <mxCell id="x30YPCIN9MbRx7GIg8Qw-19" value="" style="endArrow=none;html=1;" parent="1" edge="1">
          <mxGeometry width="50" height="50" relative="1" as="geometry">
            <mxPoint x="360" y="530" as="sourcePoint" />
            <mxPoint x="360" y="60" as="targetPoint" />
          </mxGeometry>
        </mxCell>
        <mxCell id="x30YPCIN9MbRx7GIg8Qw-20" value="" style="endArrow=none;html=1;exitX=0.458;exitY=1.15;exitDx=0;exitDy=0;exitPerimeter=0;" parent="1" edge="1">
          <mxGeometry width="50" height="50" relative="1" as="geometry">
            <mxPoint x="430.22" y="533" as="sourcePoint" />
            <mxPoint x="430" y="60" as="targetPoint" />
          </mxGeometry>
        </mxCell>
        <mxCell id="x30YPCIN9MbRx7GIg8Qw-21" value="" style="endArrow=none;html=1;exitX=0.576;exitY=1;exitDx=0;exitDy=0;exitPerimeter=0;" parent="1" edge="1">
          <mxGeometry width="50" height="50" relative="1" as="geometry">
            <mxPoint x="499.8399999999999" y="530" as="sourcePoint" />
            <mxPoint x="500" y="60" as="targetPoint" />
          </mxGeometry>
        </mxCell>
        <mxCell id="x30YPCIN9MbRx7GIg8Qw-22" value="" style="endArrow=none;html=1;" parent="1" edge="1">
          <mxGeometry width="50" height="50" relative="1" as="geometry">
            <mxPoint x="570" y="529" as="sourcePoint" />
            <mxPoint x="570" y="60" as="targetPoint" />
          </mxGeometry>
        </mxCell>
        <mxCell id="x30YPCIN9MbRx7GIg8Qw-23" value="" style="endArrow=none;html=1;exitX=0.831;exitY=1;exitDx=0;exitDy=0;exitPerimeter=0;" parent="1" edge="1">
          <mxGeometry width="50" height="50" relative="1" as="geometry">
            <mxPoint x="650.29" y="530" as="sourcePoint" />
            <mxPoint x="650" y="60" as="targetPoint" />
          </mxGeometry>
        </mxCell>
        <mxCell id="x30YPCIN9MbRx7GIg8Qw-24" value="" style="endArrow=none;html=1;exitX=0.949;exitY=1.05;exitDx=0;exitDy=0;exitPerimeter=0;" parent="1" edge="1">
          <mxGeometry width="50" height="50" relative="1" as="geometry">
            <mxPoint x="719.9099999999999" y="531" as="sourcePoint" />
            <mxPoint x="720" y="60" as="targetPoint" />
          </mxGeometry>
        </mxCell>
        <mxCell id="x30YPCIN9MbRx7GIg8Qw-2" value="" style="rounded=1;whiteSpace=wrap;html=1;labelBackgroundColor=#ffffff;gradientDirection=west;gradientColor=#007FFF;strokeColor=none;" parent="1" vertex="1">
          <mxGeometry x="160" y="84" width="450" height="20" as="geometry" />
        </mxCell>
        <mxCell id="x30YPCIN9MbRx7GIg8Qw-3" value="Match to KEMI Requirements" style="text;html=1;strokeColor=none;fillColor=none;align=center;verticalAlign=middle;whiteSpace=wrap;rounded=0;labelBackgroundColor=#ffffff;" parent="1" vertex="1">
          <mxGeometry x="10" y="114" width="140" height="30" as="geometry" />
        </mxCell>
        <mxCell id="x30YPCIN9MbRx7GIg8Qw-4" value="Overall Tool" style="text;html=1;strokeColor=none;fillColor=none;align=center;verticalAlign=middle;whiteSpace=wrap;rounded=0;labelBackgroundColor=#ffffff;" parent="1" vertex="1">
          <mxGeometry x="10" y="154" width="140" height="30" as="geometry" />
        </mxCell>
        <mxCell id="x30YPCIN9MbRx7GIg8Qw-5" value="Communities" style="text;html=1;strokeColor=none;fillColor=none;align=center;verticalAlign=middle;whiteSpace=wrap;rounded=0;labelBackgroundColor=#ffffff;" parent="1" vertex="1">
          <mxGeometry x="10" y="234" width="140" height="30" as="geometry" />
        </mxCell>
        <mxCell id="x30YPCIN9MbRx7GIg8Qw-6" value="Features" style="text;html=1;strokeColor=none;fillColor=none;align=center;verticalAlign=middle;whiteSpace=wrap;rounded=0;labelBackgroundColor=#ffffff;" parent="1" vertex="1">
          <mxGeometry x="10" y="194" width="140" height="30" as="geometry" />
        </mxCell>
        <mxCell id="x30YPCIN9MbRx7GIg8Qw-7" value="Learning Curve" style="text;html=1;strokeColor=none;fillColor=none;align=center;verticalAlign=middle;whiteSpace=wrap;rounded=0;labelBackgroundColor=#ffffff;" parent="1" vertex="1">
          <mxGeometry x="10" y="274" width="140" height="30" as="geometry" />
        </mxCell>
        <mxCell id="x30YPCIN9MbRx7GIg8Qw-8" value="Long term Cost" style="text;html=1;strokeColor=none;fillColor=none;align=center;verticalAlign=middle;whiteSpace=wrap;rounded=0;labelBackgroundColor=#ffffff;" parent="1" vertex="1">
          <mxGeometry x="10" y="349" width="140" height="30" as="geometry" />
        </mxCell>
        <mxCell id="x30YPCIN9MbRx7GIg8Qw-9" value="Ease of use" style="text;html=1;strokeColor=none;fillColor=none;align=center;verticalAlign=middle;whiteSpace=wrap;rounded=0;labelBackgroundColor=#ffffff;" parent="1" vertex="1">
          <mxGeometry x="10" y="314" width="140" height="30" as="geometry" />
        </mxCell>
        <mxCell id="x30YPCIN9MbRx7GIg8Qw-10" value="Recommendation Average (Not Weighted)" style="text;html=1;strokeColor=none;fillColor=none;align=center;verticalAlign=middle;whiteSpace=wrap;rounded=0;labelBackgroundColor=#ffffff;" parent="1" vertex="1">
          <mxGeometry x="10" y="74" width="140" height="30" as="geometry" />
        </mxCell>
        <mxCell id="x30YPCIN9MbRx7GIg8Qw-11" value="" style="rounded=1;whiteSpace=wrap;html=1;labelBackgroundColor=#ffffff;gradientDirection=west;strokeColor=#b85450;fillColor=#f8cecc;" parent="1" vertex="1">
          <mxGeometry x="160" y="119" width="560" height="20" as="geometry" />
        </mxCell>
        <mxCell id="x30YPCIN9MbRx7GIg8Qw-12" value="" style="rounded=1;whiteSpace=wrap;html=1;labelBackgroundColor=#ffffff;gradientDirection=west;gradientColor=#007FFF;strokeColor=none;" parent="1" vertex="1">
          <mxGeometry x="160" y="159" width="440" height="20" as="geometry" />
        </mxCell>
        <mxCell id="x30YPCIN9MbRx7GIg8Qw-13" value="" style="rounded=1;whiteSpace=wrap;html=1;labelBackgroundColor=#ffffff;gradientDirection=west;gradientColor=#007FFF;arcSize=0;strokeColor=none;" parent="1" vertex="1">
          <mxGeometry x="160" y="199" width="480" height="20" as="geometry" />
        </mxCell>
        <mxCell id="x30YPCIN9MbRx7GIg8Qw-14" value="" style="rounded=1;whiteSpace=wrap;html=1;labelBackgroundColor=#ffffff;gradientDirection=west;gradientColor=#007FFF;strokeColor=none;" parent="1" vertex="1">
          <mxGeometry x="160" y="239" width="410" height="20" as="geometry" />
        </mxCell>
        <mxCell id="x30YPCIN9MbRx7GIg8Qw-15" value="" style="rounded=1;whiteSpace=wrap;html=1;labelBackgroundColor=#ffffff;gradientDirection=west;gradientColor=#007FFF;strokeColor=none;" parent="1" vertex="1">
          <mxGeometry x="160" y="279" width="340" height="20" as="geometry" />
        </mxCell>
        <mxCell id="x30YPCIN9MbRx7GIg8Qw-16" value="" style="rounded=1;whiteSpace=wrap;html=1;labelBackgroundColor=#ffffff;gradientDirection=west;gradientColor=#007FFF;strokeColor=none;" parent="1" vertex="1">
          <mxGeometry x="160" y="319" width="270" height="20" as="geometry" />
        </mxCell>
        <mxCell id="x30YPCIN9MbRx7GIg8Qw-17" value="" style="rounded=1;whiteSpace=wrap;html=1;labelBackgroundColor=#ffffff;gradientDirection=west;gradientColor=#007FFF;strokeColor=none;" parent="1" vertex="1">
          <mxGeometry x="160" y="354" width="450" height="20" as="geometry" />
        </mxCell>
        <mxCell id="x30YPCIN9MbRx7GIg8Qw-25" value="Initial Cost" style="text;html=1;strokeColor=none;fillColor=none;align=center;verticalAlign=middle;whiteSpace=wrap;rounded=0;labelBackgroundColor=#ffffff;" parent="1" vertex="1">
          <mxGeometry x="10" y="385" width="140" height="30" as="geometry" />
        </mxCell>
        <mxCell id="x30YPCIN9MbRx7GIg8Qw-26" value="Maintenance and support" style="text;html=1;strokeColor=none;fillColor=none;align=center;verticalAlign=middle;whiteSpace=wrap;rounded=0;labelBackgroundColor=#ffffff;" parent="1" vertex="1">
          <mxGeometry x="10" y="420" width="140" height="30" as="geometry" />
        </mxCell>
        <mxCell id="x30YPCIN9MbRx7GIg8Qw-27" value="Performance" style="text;html=1;strokeColor=none;fillColor=none;align=center;verticalAlign=middle;whiteSpace=wrap;rounded=0;labelBackgroundColor=#ffffff;" parent="1" vertex="1">
          <mxGeometry x="10" y="460" width="140" height="30" as="geometry" />
        </mxCell>
        <mxCell id="x30YPCIN9MbRx7GIg8Qw-28" value="Usability" style="text;html=1;strokeColor=none;fillColor=none;align=center;verticalAlign=middle;whiteSpace=wrap;rounded=0;labelBackgroundColor=#ffffff;" parent="1" vertex="1">
          <mxGeometry x="10" y="505" width="140" height="30" as="geometry" />
        </mxCell>
        <mxCell id="x30YPCIN9MbRx7GIg8Qw-29" value="" style="rounded=1;whiteSpace=wrap;html=1;labelBackgroundColor=#ffffff;gradientDirection=west;gradientColor=#007FFF;strokeColor=none;" parent="1" vertex="1">
          <mxGeometry x="160" y="390" width="490" height="20" as="geometry" />
        </mxCell>
        <mxCell id="x30YPCIN9MbRx7GIg8Qw-30" value="" style="rounded=1;whiteSpace=wrap;html=1;labelBackgroundColor=#ffffff;gradientDirection=west;gradientColor=#007FFF;strokeColor=none;" parent="1" vertex="1">
          <mxGeometry x="160" y="430" width="160" height="20" as="geometry" />
        </mxCell>
        <mxCell id="x30YPCIN9MbRx7GIg8Qw-31" value="" style="rounded=1;whiteSpace=wrap;html=1;labelBackgroundColor=#ffffff;gradientDirection=west;gradientColor=#007FFF;strokeColor=none;" parent="1" vertex="1">
          <mxGeometry x="160" y="470" width="450" height="20" as="geometry" />
        </mxCell>
        <mxCell id="x30YPCIN9MbRx7GIg8Qw-33" value="&lt;b&gt;&lt;font style=&quot;font-size: 14px&quot;&gt;Selenium Scorecard Summary&lt;/font&gt;&lt;/b&gt;" style="text;html=1;strokeColor=none;fillColor=none;align=center;verticalAlign=middle;whiteSpace=wrap;rounded=0;" parent="1" vertex="1">
          <mxGeometry x="320" y="20" width="210" height="20" as="geometry" />
        </mxCell>
        <mxCell id="x30YPCIN9MbRx7GIg8Qw-67" value="1" style="text;html=1;align=center;verticalAlign=middle;resizable=0;points=[];autosize=1;" parent="1" vertex="1">
          <mxGeometry x="210" y="40" width="20" height="20" as="geometry" />
        </mxCell>
        <mxCell id="x30YPCIN9MbRx7GIg8Qw-68" value="2" style="text;html=1;align=center;verticalAlign=middle;resizable=0;points=[];autosize=1;" parent="1" vertex="1">
          <mxGeometry x="280" y="40" width="20" height="20" as="geometry" />
        </mxCell>
        <mxCell id="x30YPCIN9MbRx7GIg8Qw-69" value="3" style="text;html=1;align=center;verticalAlign=middle;resizable=0;points=[];autosize=1;" parent="1" vertex="1">
          <mxGeometry x="350" y="40" width="20" height="20" as="geometry" />
        </mxCell>
        <mxCell id="x30YPCIN9MbRx7GIg8Qw-70" value="4" style="text;html=1;align=center;verticalAlign=middle;resizable=0;points=[];autosize=1;" parent="1" vertex="1">
          <mxGeometry x="420" y="40" width="20" height="20" as="geometry" />
        </mxCell>
        <mxCell id="x30YPCIN9MbRx7GIg8Qw-71" value="5" style="text;html=1;align=center;verticalAlign=middle;resizable=0;points=[];autosize=1;" parent="1" vertex="1">
          <mxGeometry x="490" y="40" width="20" height="20" as="geometry" />
        </mxCell>
        <mxCell id="x30YPCIN9MbRx7GIg8Qw-72" value="6" style="text;html=1;align=center;verticalAlign=middle;resizable=0;points=[];autosize=1;" parent="1" vertex="1">
          <mxGeometry x="560" y="40" width="20" height="20" as="geometry" />
        </mxCell>
        <mxCell id="x30YPCIN9MbRx7GIg8Qw-73" value="7" style="text;html=1;align=center;verticalAlign=middle;resizable=0;points=[];autosize=1;" parent="1" vertex="1">
          <mxGeometry x="640" y="40" width="20" height="20" as="geometry" />
        </mxCell>
        <mxCell id="x30YPCIN9MbRx7GIg8Qw-74" value="8" style="text;html=1;align=center;verticalAlign=middle;resizable=0;points=[];autosize=1;" parent="1" vertex="1">
          <mxGeometry x="710" y="40" width="20" height="20" as="geometry" />
        </mxCell>
        <mxCell id="NIEktNaO8Cts8v90nyMq-2" value="" style="rounded=1;whiteSpace=wrap;html=1;labelBackgroundColor=#ffffff;gradientDirection=west;gradientColor=#007FFF;strokeColor=none;" vertex="1" parent="1">
          <mxGeometry x="160" y="515" width="530" height="20" as="geometry" />
        </mxCell>
        <mxCell id="NIEktNaO8Cts8v90nyMq-3" value="6.5" style="text;html=1;align=center;verticalAlign=middle;resizable=0;points=[];autosize=1;" vertex="1" parent="1">
          <mxGeometry x="595" y="79" width="30" height="20" as="geometry" />
        </mxCell>
        <mxCell id="NIEktNaO8Cts8v90nyMq-4" value="6.5" style="text;html=1;align=center;verticalAlign=middle;resizable=0;points=[];autosize=1;" vertex="1" parent="1">
          <mxGeometry x="595" y="159" width="30" height="20" as="geometry" />
        </mxCell>
        <mxCell id="NIEktNaO8Cts8v90nyMq-5" value="6.8" style="text;html=1;align=center;verticalAlign=middle;resizable=0;points=[];autosize=1;" vertex="1" parent="1">
          <mxGeometry x="625" y="204" width="30" height="20" as="geometry" />
        </mxCell>
        <mxCell id="NIEktNaO8Cts8v90nyMq-7" value="6" style="text;html=1;align=center;verticalAlign=middle;resizable=0;points=[];autosize=1;" vertex="1" parent="1">
          <mxGeometry x="570" y="239" width="20" height="20" as="geometry" />
        </mxCell>
        <mxCell id="NIEktNaO8Cts8v90nyMq-8" value="5" style="text;html=1;align=center;verticalAlign=middle;resizable=0;points=[];autosize=1;" vertex="1" parent="1">
          <mxGeometry x="500" y="284" width="20" height="20" as="geometry" />
        </mxCell>
        <mxCell id="NIEktNaO8Cts8v90nyMq-9" value="4" style="text;html=1;align=center;verticalAlign=middle;resizable=0;points=[];autosize=1;" vertex="1" parent="1">
          <mxGeometry x="430" y="321" width="20" height="20" as="geometry" />
        </mxCell>
        <mxCell id="NIEktNaO8Cts8v90nyMq-10" value="6.5" style="text;html=1;align=center;verticalAlign=middle;resizable=0;points=[];autosize=1;" vertex="1" parent="1">
          <mxGeometry x="600" y="354" width="30" height="20" as="geometry" />
        </mxCell>
        <mxCell id="NIEktNaO8Cts8v90nyMq-11" value="7" style="text;html=1;align=center;verticalAlign=middle;resizable=0;points=[];autosize=1;" vertex="1" parent="1">
          <mxGeometry x="650" y="390" width="20" height="20" as="geometry" />
        </mxCell>
        <mxCell id="NIEktNaO8Cts8v90nyMq-12" value="7.8" style="text;html=1;align=center;verticalAlign=middle;resizable=0;points=[];autosize=1;" vertex="1" parent="1">
          <mxGeometry x="675" y="490" width="30" height="20" as="geometry" />
        </mxCell>
        <mxCell id="NIEktNaO8Cts8v90nyMq-13" value="2.5" style="text;html=1;align=center;verticalAlign=middle;resizable=0;points=[];autosize=1;" vertex="1" parent="1">
          <mxGeometry x="305" y="430" width="30" height="20" as="geometry" />
        </mxCell>
        <mxCell id="NIEktNaO8Cts8v90nyMq-14" value="6.5" style="text;html=1;align=center;verticalAlign=middle;resizable=0;points=[];autosize=1;" vertex="1" parent="1">
          <mxGeometry x="595" y="465" width="30" height="20" as="geometry" />
        </mxCell>
      </root>
    </mxGraphModel>
  </diagram>
</mxfile>
